<?xml version="1.0" encoding="UTF-8" standalone="no"?>
<svg width="68px" height="64px" viewBox="0 0 188 172" version="1.1" xmlns="http://www.w3.org/2000/svg" xmlns:xlink="http://www.w3.org/1999/xlink">
    <!-- Generator: Sketch 3.8.3 (29802) - http://www.bohemiancoding.com/sketch -->
    <title>Group</title>
    <desc>Created with Sketch.</desc>
    <defs>
        <polygon id="path-1" points="33.0000002 0 60.212766 47.4961039 87 0 114 0 59.787234 90.0935065 6 0"></polygon>
        <filter x="-50%" y="-50%" width="200%" height="200%" filterUnits="objectBoundingBox" id="filter-2">
            <feMorphology radius="1" operator="dilate" in="SourceAlpha" result="shadowSpreadOuter1"></feMorphology>
            <feOffset dx="0" dy="2" in="shadowSpreadOuter1" result="shadowOffsetOuter1"></feOffset>
            <feGaussianBlur stdDeviation="21" in="shadowOffsetOuter1" result="shadowBlurOuter1"></feGaussianBlur>
            <feColorMatrix values="0 0 0 0 0   0 0 0 0 0   0 0 0 0 0  0 0 0 0.123443161 0" type="matrix" in="shadowBlurOuter1"></feColorMatrix>
        </filter>
    </defs>
    <g id="Page-1" stroke="none" stroke-width="1" fill="none" fill-rule="evenodd">
        <g id="wbsite" transform="translate(-247.000000, -296.000000)">
            <g id="Group" transform="translate(250.000000, 298.000000)">
                <g id="Group-2" transform="translate(31.000000, 39.000000)">
                    <polygon id="v" fill="#FFFFFF" points="31.2 0 60 48.774026 88.8 0 120 0 59.787234 98.4 0 0"></polygon>
                    <g id="v-copy">
                        <use fill="white" fill-opacity="1" filter="url(#filter-2)" xlink:href="#path-1"></use>
                        <use fill="#FFFFFF" fill-rule="evenodd" xlink:href="#path-1"></use>
                        <use fill="white" fill-opacity="1" xlink:href="#path-1"></use>
                    </g>
                </g>
                <path d="M8.40429688,23.7802734 C8.25781177,23.9267585 8.04785293,24 7.77441406,24 C7.51074087,24 7.29589927,23.916993 7.12988281,23.7509766 C7.0615231,23.6826168 7.01269546,23.6142582 6.98339844,23.5458984 L0.245117188,8.85351562 C0.206054492,8.75585889 0.186523438,8.63867256 0.186523438,8.50195312 C0.186523438,8.24804561 0.274413184,8.033204 0.450195312,7.85742188 C0.625977441,7.68163975 0.840819043,7.59375 1.09472656,7.59375 C1.34863408,7.59375 1.56835845,7.67675698 1.75390625,7.84277344 C1.81250029,7.90136748 1.86621069,7.9794917 1.91503906,8.07714844 L7.77441406,20.8945312 L13.6337891,8.07714844 C13.6728518,7.99902305 13.7265622,7.92578159 13.7949219,7.85742188 C13.9804697,7.68163975 14.200194,7.59375 14.4541016,7.59375 C14.7080091,7.59375 14.9252921,7.67919836 15.105957,7.85009766 C15.286622,8.02099695 15.3769531,8.23827993 15.3769531,8.50195312 C15.3769531,8.62890688 15.3525393,8.74609321 15.3037109,8.85351562 L8.56542969,23.5458984 C8.52636699,23.6337895 8.47265659,23.7119137 8.40429688,23.7802734 L8.40429688,23.7802734 Z M42.2958984,14.8886719 C42.0224596,13.4335865 41.4121141,12.2324266 40.4648438,11.2851562 C39.2148375,10.03515 37.7109463,9.41015625 35.953125,9.41015625 C34.1953037,9.41015625 32.6914125,10.03515 31.4414062,11.2851562 C30.5039016,12.2226609 29.8886733,13.4238208 29.5957031,14.8886719 L42.2958984,14.8886719 Z M40.6259766,20.4697266 C40.8798841,20.4697266 41.0947257,20.5600577 41.2705078,20.7407227 C41.4462899,20.9213876 41.5341797,21.1386706 41.5341797,21.3925781 C41.5341797,21.6464856 41.4560555,21.8564445 41.2998047,22.0224609 C39.7763596,23.3408269 37.9941508,24 35.953125,24 C33.6874887,24 31.7539143,23.1992268 30.1523438,21.5976562 C28.5507732,19.9960857 27.75,18.0625113 27.75,15.796875 C27.75,13.5312387 28.5507732,11.5976643 30.1523438,9.99609375 C31.7539143,8.39452324 33.6874887,7.59375 35.953125,7.59375 C38.2187613,7.59375 40.1523357,8.39452324 41.7539062,9.99609375 C43.3554768,11.5976643 44.15625,13.5312387 44.15625,15.796875 C44.15625,16.0507825 44.0683603,16.2656241 43.8925781,16.4414062 C43.716796,16.6171884 43.5019544,16.7050781 43.2480469,16.7050781 L29.5957031,16.7050781 C29.8886733,18.1699292 30.5039016,19.3710891 31.4414062,20.3085938 C32.6914125,21.5586 34.1953037,22.1835938 35.953125,22.1835938 C36.7539103,22.1835938 37.4960903,22.0542005 38.1796875,21.7954102 C38.8632847,21.5366198 39.4882784,21.1630884 40.0546875,20.6748047 C40.220704,20.5380853 40.4111317,20.4697266 40.6259766,20.4697266 L40.6259766,20.4697266 Z M56.5146484,8.50195312 C56.5146484,8.24804561 56.6025382,8.033204 56.7783203,7.85742188 C56.9541024,7.68163975 57.168944,7.59375 57.4228516,7.59375 C57.6767591,7.59375 57.8916007,7.68163975 58.0673828,7.85742188 C58.2431649,8.033204 58.3310547,8.24804561 58.3310547,8.50195312 L58.3310547,10.2011719 C60.1279387,8.46288193 62.0517476,7.59375 64.1025391,7.59375 C66.2119246,7.59375 67.9990161,8.33593008 69.4638672,9.8203125 C70.9580153,11.3046949 71.7050781,13.0966692 71.7050781,15.1962891 L71.7050781,23.0917969 C71.7050781,23.3457044 71.614747,23.560546 71.434082,23.7363281 C71.2534171,23.9121103 71.0361341,24 70.7822266,24 C70.528319,24 70.3134774,23.9121103 70.1376953,23.7363281 C69.9619132,23.560546 69.8740234,23.3457044 69.8740234,23.0917969 L69.8740234,15.1962891 C69.8740234,13.5849529 69.3076229,12.2275446 68.1748047,11.1240234 C67.0419865,9.9814396 65.6845782,9.41015625 64.1025391,9.41015625 C62.5204999,9.41015625 61.1582088,9.9814396 60.015625,11.1240234 C58.8925725,12.2373103 58.3310547,13.5947186 58.3310547,15.1962891 L58.3310547,23.0917969 C58.3310547,23.3457044 58.2431649,23.560546 58.0673828,23.7363281 C57.8916007,23.9121103 57.6767591,24 57.4228516,24 C57.168944,24 56.9541024,23.9121103 56.7783203,23.7363281 C56.6025382,23.560546 56.5146484,23.3457044 56.5146484,23.0917969 L56.5146484,8.50195312 Z M92.3105469,23.7802734 C92.1640618,23.9267585 91.9541029,24 91.6806641,24 C91.4169909,24 91.2021493,23.916993 91.0361328,23.7509766 C90.9677731,23.6826168 90.9189455,23.6142582 90.8896484,23.5458984 L84.1513672,8.85351562 C84.1123045,8.75585889 84.0927734,8.63867256 84.0927734,8.50195312 C84.0927734,8.24804561 84.1806632,8.033204 84.3564453,7.85742188 C84.5322274,7.68163975 84.747069,7.59375 85.0009766,7.59375 C85.2548841,7.59375 85.4746084,7.67675698 85.6601562,7.84277344 C85.7187503,7.90136748 85.7724607,7.9794917 85.8212891,8.07714844 L91.6806641,20.8945312 L97.5400391,8.07714844 C97.5791018,7.99902305 97.6328122,7.92578159 97.7011719,7.85742188 C97.8867197,7.68163975 98.106444,7.59375 98.3603516,7.59375 C98.6142591,7.59375 98.8315421,7.67919836 99.012207,7.85009766 C99.192872,8.02099695 99.2832031,8.23827993 99.2832031,8.50195312 C99.2832031,8.62890688 99.2587893,8.74609321 99.2099609,8.85351562 L92.4716797,23.5458984 C92.432617,23.6337895 92.3789066,23.7119137 92.3105469,23.7802734 L92.3105469,23.7802734 Z M119.859375,9.41015625 C118.101554,9.41015625 116.597663,10.03515 115.347656,11.2851562 C114.09765,12.5351625 113.472656,14.0390537 113.472656,15.796875 C113.472656,17.5546963 114.09765,19.0585875 115.347656,20.3085938 C116.597663,21.5586 118.101554,22.1835938 119.859375,22.1835938 C121.617196,22.1835938 123.121087,21.5586 124.371094,20.3085938 C125.611334,19.0683532 126.231445,17.564462 126.231445,15.796875 C126.231445,14.029288 125.611334,12.5253968 124.371094,11.2851562 C123.121087,10.03515 121.617196,9.41015625 119.859375,9.41015625 L119.859375,9.41015625 Z M126.231445,21.0263672 C124.258779,23.008799 122.134777,24 119.859375,24 C117.593739,24 115.660164,23.1992268 114.058594,21.5976562 C112.457023,19.9960857 111.65625,18.0625113 111.65625,15.796875 C111.65625,13.5312387 112.457023,11.5976643 114.058594,9.99609375 C115.660164,8.39452324 117.593739,7.59375 119.859375,7.59375 C122.125011,7.59375 124.058586,8.39452324 125.660156,9.99609375 C127.261727,11.5976643 128.0625,13.5312387 128.0625,15.796875 L128.0625,23.0917969 C128.0625,23.3457044 127.97461,23.560546 127.798828,23.7363281 C127.623046,23.9121103 127.408204,24 127.154297,24 C126.900389,24 126.683106,23.9121103 126.502441,23.7363281 C126.321776,23.560546 126.231445,23.3457044 126.231445,23.0917969 L126.231445,21.0263672 Z M143.233398,15.5039062 L143.248047,15.5039062 C142.798826,15.3378898 142.422853,15.1743172 142.120117,15.0131836 C141.817381,14.85205 141.583009,14.6835946 141.416992,14.5078125 C140.762692,13.833981 140.435547,13.0478561 140.435547,12.1494141 C140.435547,11.2412064 140.77734,10.4355504 141.460938,9.73242188 C142.867195,8.3066335 144.703114,7.59375 146.96875,7.59375 C148.179694,7.59375 149.317377,7.85009509 150.381836,8.36279297 C151.446294,8.87549084 152.408199,9.60058125 153.267578,10.5380859 C153.375001,10.6748054 153.428711,10.8457021 153.428711,11.0507812 C153.428711,11.3046888 153.33838,11.5219718 153.157715,11.7026367 C152.97705,11.8833017 152.759767,11.9736328 152.505859,11.9736328 C152.261718,11.9736328 152.07129,11.8955086 151.93457,11.7392578 L151.480469,11.2851562 C150.230462,10.03515 148.726571,9.41015625 146.96875,9.41015625 C145.201163,9.41015625 143.780279,9.97655684 142.706055,11.109375 C142.413084,11.4511736 142.266602,11.8710913 142.266602,12.3691406 C142.286133,12.6621108 142.374023,12.9160146 142.530273,13.1308594 C142.686524,13.3457042 142.916014,13.5068354 143.21875,13.6142578 L150.704102,16.0898438 L150.689453,16.0898438 C151.138674,16.2558602 151.514647,16.4194328 151.817383,16.5805664 C152.120119,16.7417 152.349609,16.9101554 152.505859,17.0859375 C153.169925,17.7500033 153.501953,18.5361283 153.501953,19.4443359 C153.501953,20.3623093 153.155277,21.1679653 152.461914,21.8613281 C151.065423,23.2871165 149.234386,24 146.96875,24 C144.517566,24 142.417977,23.0234473 140.669922,21.0703125 C140.562499,20.9238274 140.508789,20.7480479 140.508789,20.5429688 C140.508789,20.2890612 140.596679,20.0717782 140.772461,19.8911133 C140.948243,19.7104483 141.163085,19.6201172 141.416992,19.6201172 C141.651368,19.6201172 141.846679,19.6982414 142.00293,19.8544922 L142.457031,20.3085938 C143.707038,21.5586 145.210929,22.1835938 146.96875,22.1835938 C148.726571,22.1835938 150.13769,21.6220759 151.202148,20.4990234 C151.504884,20.1572249 151.65625,19.7373072 151.65625,19.2392578 C151.607422,18.6142547 151.290042,18.194337 150.704102,17.9794922 L143.233398,15.5039062 Z M174.195312,22.1835938 C174.44922,22.1835938 174.666503,22.2714835 174.847168,22.4472656 C175.027833,22.6230478 175.118164,22.8378894 175.118164,23.0917969 C175.118164,23.3457044 175.027833,23.560546 174.847168,23.7363281 C174.666503,23.9121103 174.44922,24 174.195312,24 C170.347637,24 168.423828,22.0761911 168.423828,18.2285156 L168.423828,9.41015625 L166.915039,9.41015625 C166.661132,9.41015625 166.443849,9.3222665 166.263184,9.14648438 C166.082519,8.97070225 165.992188,8.75586064 165.992188,8.50195312 C165.992188,8.24804561 166.082519,8.033204 166.263184,7.85742187 C166.443849,7.68163975 166.661132,7.59375 166.915039,7.59375 L168.423828,7.59375 L168.423828,1.45605469 C168.423828,1.20214717 168.511718,0.987305566 168.6875,0.811523438 C168.863282,0.635741309 169.078124,0.547851562 169.332031,0.547851562 C169.585939,0.547851562 169.803222,0.635741309 169.983887,0.811523438 C170.164552,0.987305566 170.254883,1.20214717 170.254883,1.45605469 L170.254883,7.59375 L172.994141,7.59375 C173.248048,7.59375 173.465331,7.68163975 173.645996,7.85742187 C173.826661,8.033204 173.916992,8.24804561 173.916992,8.50195312 C173.916992,8.75586064 173.826661,8.97070225 173.645996,9.14648438 C173.465331,9.3222665 173.248048,9.41015625 172.994141,9.41015625 L170.254883,9.41015625 L170.254883,18.2285156 C170.254883,20.8652476 171.568346,22.1835938 174.195312,22.1835938 L174.195312,22.1835938 Z" id="venvast" fill="#FFFFFF"></path>
            </g>
        </g>
    </g>
</svg>
